<?xml version="1.0" standalone="no"?>
<!DOCTYPE svg PUBLIC "-//W3C//DTD SVG 20010904//EN"
 "http://www.w3.org/TR/2001/REC-SVG-20010904/DTD/svg10.dtd">
<svg version="1.0" xmlns="http://www.w3.org/2000/svg"
 width="260.000000pt" height="260.000000pt" viewBox="0 0 260.000000 260.000000"
 preserveAspectRatio="xMidYMid meet">
<metadata>
Created by potrace 1.14, written by Peter Selinger 2001-2017
</metadata>
<g transform="translate(0.000000,260.000000) scale(0.100000,-0.100000)"
fill="#000000" stroke="none">
<path d="M2084 2540 c-22 -11 -54 -34 -69 -51 l-29 -30 229 -229 229 -230 34
33 c51 48 76 109 67 165 -6 43 -18 57 -147 188 -77 79 -155 150 -173 158 -45
22 -92 20 -141 -4z"/>
<path d="M1902 2367 l-21 -23 224 -224 224 -224 26 24 26 24 -223 223 c-123
123 -225 223 -229 223 -3 0 -15 -10 -27 -23z"/>
<path d="M1790 2255 l-24 -26 222 -222 c122 -122 222 -227 222 -232 0 -13
-902 -915 -915 -915 -6 0 -109 99 -230 220 -121 121 -223 220 -226 220 -3 0
-14 -18 -24 -40 l-18 -40 -203 0 c-167 0 -205 -3 -218 -15 -26 -27 -29 -56 -8
-84 l19 -26 177 -3 176 -2 -6 -28 c-4 -15 -15 -49 -24 -77 l-17 -50 -139 -2
c-76 -2 -149 -5 -160 -8 -12 -3 -27 -19 -34 -36 -11 -27 -11 -33 7 -57 20 -27
22 -27 147 -30 69 -1 126 -4 126 -5 0 -2 -9 -28 -20 -60 -11 -31 -20 -63 -20
-71 0 -11 -22 -15 -105 -18 -112 -3 -128 -10 -140 -59 -4 -17 0 -33 13 -50 19
-23 26 -24 174 -30 108 -3 170 -1 211 8 32 7 120 20 195 29 148 16 286 45 330
68 15 8 74 53 132 100 l105 86 191 0 c172 0 193 2 207 18 22 25 21 75 -1 95
-15 14 -40 17 -121 17 -58 0 -101 4 -99 9 5 16 180 151 194 151 7 0 24 14 36
31 13 17 87 83 166 146 l143 116 -2 204 c-1 184 0 206 17 224 18 20 14 24
-207 245 l-225 225 -24 -26z"/>
<path d="M371 2064 c-33 -42 -26 -76 20 -99 23 -13 112 -15 556 -15 l529 0 69
70 69 70 -611 0 -612 0 -20 -26z"/>
<path d="M370 1773 c-24 -30 -20 -69 7 -90 13 -10 112 -13 418 -13 l401 0 64
65 64 65 -466 0 -467 0 -21 -27z"/>
<path d="M371 1484 c-12 -15 -21 -31 -21 -36 0 -14 21 -52 34 -60 6 -4 126 -8
266 -8 l256 0 64 65 64 65 -321 0 -322 0 -20 -26z"/>
</g>
</svg>
